/* XPM */
static char *result[] = {
/* columns rows colors chars-per-pixel */
"90 90 90 1 ",
"  c #99552E",
". c #9B5635",
"X c #9C5B36",
"o c #9C573A",
"O c #9C5A3A",
"+ c #A15735",
"@ c #A15E36",
"# c #A1563D",
"$ c #A15C3A",
"% c #9F6137",
"& c #9E6139",
"* c #AC6D2F",
"= c #AE732E",
"- c #B2762E",
"; c #B37C2C",
": c #B8792D",
"> c #A36335",
", c #A96635",
"< c #A66B33",
"1 c #AA6D32",
"2 c #A46338",
"3 c #AC7131",
"4 c #B37532",
"5 c #B07A30",
"6 c #9E5942",
"7 c #B78626",
"8 c #BC8426",
"9 c #BC8A26",
"0 c #B6822B",
"q c #BA832A",
"w c #B78828",
"e c #BC8B29",
"r c #C9961F",
"t c #C69A1F",
"y c #C89C1F",
"u c #D39E13",
"i c #DDB70F",
"p c #DEBD0F",
"a c #CBA31D",
"s c #CDA91C",
"d c #D3A717",
"f c #D4AD15",
"g c #D8AA16",
"h c #D0A61C",
"j c #D3AD1B",
"k c #D6B317",
"l c #DAB415",
"z c #D6BC12",
"x c #DBBB14",
"c c #D5B31A",
"v c #D9B71A",
"b c #D9BB1B",
"n c #E2BF10",
"m c #C48B23",
"M c #C3802A",
"N c #C08F2B",
"B c #C29324",
"V c #C59B22",
"C c #C99C22",
"Z c #C49229",
"A c #C89B28",
"S c #C9A121",
"D c #DFC212",
"F c #DECB12",
"G c #DBC018",
"H c #E1C50E",
"J c #E5CB0D",
"K c #E9CC0C",
"L c #EFDD05",
"P c #E6D20B",
"I c #EAD20B",
"U c #E6D90B",
"Y c #EDD90B",
"T c #F2DD07",
"R c #F0D709",
"E c #F2DC09",
"W c #E2C511",
"Q c #E5CA10",
"! c #EACB12",
"~ c #E9D015",
"^ c #EFE20A",
"/ c #F6E603",
"( c #FBE700",
") c #F7E803",
"_ c #FBEA01",
"` c #F2E50B",
"' c #FFF200",
"] c #FFF900",
"[ c #F7F10F",
"{ c None",
/* pixels */
"{{{{{{{{{{{{{{{{{{{{{{{{{{{{{{{{{{{{{{{{{{{{{{{{{{{{{{{{{{{{{{{{{{{{{{{{{{{{{{{{{{{{{{{{{{",
"{{{{{{{{{{{{{{{{{{{{{{{{{{{{{{{{{{{{{{{{{{{{{{{{{{{{{{{{{{{{{{{{{{{{{{{{{{{{{{{{{{{{{{{{{{",
"{{{{{{{{{{{{{{{{{{{{{{{{{{{{{{{{{{{{{{{{{{{{{{{{{{{{{{{{{{{{{{{{{{{{{{{{{{{{{{{{{{{{{{{{{{",
"{{{{{{{{{{{{{{{{{{{{{{{{{{{{{{{{{{.@O+{{{{{{{{{{{{{{{{{{{{{{{{{{{{{{{{{{{{{{{{{{{{{{{{{{{{",
"{{{{{{{{{{{{{{{{{{{{{{{{{{{{{{{{XXOXoo#${{{{{{{{{{{{{{{{{{{{{{{{{{{{{{{{{{{{{{{{{{{{{{{{{{",
"{{{{{{{{{{{{{{{{{{{{{{{{{{{{{{{OO.OXOOO6XX{{{{{{{{{{{{{{{{{{{{{{{{{{{{{{{{{{{{{{{{{{{{{{{{",
"{{{{{{{{{{{{{{{{{{{{{{{{{{{{{{X@.XoXoOOOXXO${{{{{{{{{{{{{{{{{{{{{{{{{{{{{{{{{{{{{{{{{{{{{{",
"{{{{{{{{{{{{{{{{{{{{{{{{{{{{{{O$. OOoOO6OOo26{{{{{{{{{{{{{{{{{{{{{{{{{{{{{{{{{{{{{{{{{{{{{",
"{{{{{{{{{{{{{{{{{{{{{{{{{{{{{OOO.XXXoOO6Oo.O2{{{{{{{{{{{{{{{{{{{{{{{{{{{{{{{{{{{{{{{{{{{{{",
"{{{{{{{{{{{{{{{{{{{{{{{{{{{{{X O..OOOOOOO.OX6{{{{{{{{{{{{{{{{{{{{{{{{{{{{{{{{{{{{{{{{{{{{{",
"{{{{{{{{{{{{{{{{{{{{{{{{{{{{XOO oOOOOOoOOXOO$O{{{{{{{{{{{{{{{{{{{{{{{{{{{{{{{{{{{{{{{{{{{{",
"{{{{{{{{{{{{{{{{{{{{{{{{{{{{XOO OOOOOOOOOOOXO${{{{{{{{{{{{{{{{{{{{{{{{{{{{{{{{{{{{{{{{{{{{",
"{{{{{{{{{{{{{{{{{{{{{{{{{{{{OO.OOOOO6OO.OOOOO{{{{{{{{{{{{{{{{{{{{{{{{{{{{{{{{{{{{{{{{{{{{{",
"{{{{{{{{{{{{{{{{{{{{{{{{{{{2OO OOOOOOOOO.OOX${{{{{{{{{{{{{{{{{{{{{{{{{{{{{{{{{{{{{{{{{{{{{",
"{{{{{{{{{{{{{{{{{{{{{{{{{{{OOO OOoOOOOOO.O {O{{{{{{{{{{{{{{{{{{{{{{{{{{{{{{{{{{{{{{{{{{{{{",
"{{{{{{{{{{{{{{{{{{{{{{{{{{{O6O OOO6OOoOoOOO6${{{{{{{{{{{{{{{{{{{{{{{{{{{{{{{{{{{{{{{{{{{{{",
"{{{{{{{{{{{{{{{{{{{{{{{{{{{2Oo.OOOOOOoOoOOo${{{{{{{{{{{{{{{{{{{{{{{{{{{{{{{{{{{{{{{{{{{{{{",
"{{{{{{{{{{{{{{{{{{{{{{{{{{{OOoXOOO6OOX.O$,o{{{{{{{{{{{{{{{{{{{{{{{{{{{{{{{{{{{{{{{{{{{{{{{",
"{{{{{{{{{{{{{{{{{{{{{{{{{{6XO.OOOOOOoXoo$1{{{{{{{{{{{{{{{{{{{{{{{{{{{{{{{{{{{{{{{{{{{{{{{{",
"{{{{{{{{{{{{{{{{{{{{{{{{{{O0O.XOOOOOo$$O3-{{{{{{{{{{{{{{{{{{{{{{{{{{{{{{{{{{{{{{{{{{{{{{{{",
"{{{{{{{{{{{{{{{{{{{{{{{{{{Oe;OOOOOOOo@5BhQ{{{{{{{{{{{{{{{{{{{{{{{{{{{{{{{{{{{{{{{{{{{{{{{{",
"{{{{{{{{{{{{{{{{{{{{{{{{{{{e=,OO6O2$O>;aR'{{{{{{{{{{{{{{{{{{{{{{{{{{{{{{{{{{{{{{{{{{{{{{{{",
"{{{{{{{{{{{{{{{{{{{{{{{{{{{]H3<XOO52>9SJ''{{{{{{{{{{{{{{{{{{{{{{{{{{{{{{{{{{{{{{{{{{{{{{{{",
"{{{{{{{{{{{{{{{{{{{{{{{{{{{]''WC5V;1a''''']{{{{{{{{{{{{{{{{{{{{{{{{{{{{{{{{{{{{{{{{{{{{{{{",
"{{{{{{{{{{{{{{{{{{{{{{{{{{{'''''_'bJ''''''{{{{{{{{{{{{{{{{{{{{{{{{{{{{{{{{{{{{{{{{{{{{{{{{",
"{{{{{{{{{{{{{{{{{{{{{{{{{{''''''''''''''''{{{{{{{{{{{{{{{{{{{{{{{{{{{{{{{{{{{{{{{{{{{{{{{{",
"{{{{{{{{{{{{{{{{{{{{{{{{{{'''''''''''''''''{{{{{{{{{{{{{{{{{{{{{{{{{{{{{{{{{{{{{{{{{{{{{{{",
"{{{{{{{{{{{{{{{{{{{{{{{{{{'''''''''''''''']{{{{{{{{{{{{{{{{{{{{{{{{{{{{{{{{{{{{{{{{{{{{{{{",
"{{{{{{{{{{{{{{{{{{{{{{{{{{''''Y''''''''Y'''{{{{{{{{{{{{{{{{{{{{{{{{{{{{{{{{{{{{{{{{{{{{{{{",
"{{{{{{{{{{{{{{{{{{{{{{{{{'''E)l''_'''E/x''_'{{{{{{{{{{{{{{{{{{{{{{{{{{{{{{{{{{{{{{{{{{{{{{",
"{{{{{{{{{{{{{{{{{{{{{{{{{]'_jW9''T''_kWe''T'{{{{{{{{{{{{{{{{{{{{{{{{{{{{{{{{{{{{{{{{{{{{{{",
"{{{{{{{{{{{{{{{{{{{{{{{{{''Pqk>'CR)'P:k>YCR)]{{{{{{{{{{{{{{{{{{{{{{{{{{{{{{{{{{{{{{{{{{{{{",
"{{{{{{{{{{{{{{{{{{{{{{{{{''J5<oOeN)'!0,OO0e/']{{{{{{{{{{{{{{{{{{{{{{{{{{{{{{{{{{{{{{{{{{{{",
"{{{{{{{{{{{{{{{{{{{{{{{{'''K>OOOX,)'I<.X.O3I_''{{{{{{{{{{{{{{{{{{{{{{{{{{{{{{{{{{{{{{{{{{{",
"{{{{{{{{{{{{{{{{{{{{{{{{'''z>XoOO<)'I5.oOO>Hx''{]{{{{{{{{{{{{{{{{{{{{{{{{{{{{{{{{{{{{{{{{{",
"{{{{{{{{{{{{{{{{{{{{{{{{]'_7>XOO&<)_9=OX.o><lJL'{]{{{{{{{{{{{{{{{{{{{{{{{{{{{{{{{{{{{{{{{{",
"{{{{{{{{{{{{{{{{{{{{{{{{''_72XOOO,))VjXOOXOO1pKJI^]{{{{{{{{{{{{{{{{{{{{{{{{{{{{{{{{{{{{{{{",
"{{{{{{{{{{{{{{{{{{{{{{{{''_72XoOO>)_ys>XOOOXX,;flEPL{{{{{{{{{{{{{{{{{{{{{{{{{{{{{{{{{{{{{{",
"{{{{{{{{{{{{{{{{{{{{{{{{''_72OoOO2)')7wXOOOOO.>>;jgxWRP{{{{{{{{{{{{{{{{{{{{{{{{{{{{{{{{{{{",
"{{{{{{{{{{{{{{{{{{{{{{{_''_7&OoO$2)'_V05OOOOOOOO2>1;9hx!PJ{{{{{{{{{{{{{{{{{{{{{{{{{{{'{{{{",
"{{{{{{{{{{{{{{{{{{{{{{{''')7>$OOO2_''_e->XOOOOOOOOO>X=1mdaIPH{{{{{{{{{{{{{{{{{{{{{]''_{{{{",
"{{{{{{{{{{{{{{{{{{{{{{{'''(7>XoOO2)''''W3<5OOOOOOOOOOOO2>:sdCxg8mdM{{{{{{{{{{{{{{{]'''{'{{",
"{{{{{{{{{{{{{{{{{{{{{{{]''_7$XOOO2)]]''''D1><.OOOOXOOOOOX%>3=q400;=1,1>1e{{{{{{{{]'''''']{",
"{{{{{{{{{{{{{{{{{{{{{{{]''_72@oOO2)']]'''''D3><OO&OOOOOOOOOO&&&>&>X>$X$&>3S/`]{{''{''''']{",
"{{{{{{{{{{{{{{{{{{{{{{{]''_7&OoO&2)]]]'''''''We2>2O%XXO$OOOOOOOOOOOOOOOOOOeA'''''{'''''''{",
"{{{{{{{{{{{{{{{{{{{{{{{']'_72OOOO2)]''']'''''''_W0<>>1XOOOOOOOOOOOOOOOO6OOOSb']']'''''''''",
"{{{{{{{{{{{{{{{{{{{{{{{'''_7>OoOO2)]{'']''''''''''_'V,>1$XXOOOo.O.oOOOOOO66Oj'']''''''''''",
"{{{{{{{{{{{{{{{{{{{{{{{]''(72XOO&2)'{{_'''''''''''''''F8>>,OX&XOX%O2OO&X2OO'''''''''''''''",
"{{{{{{{{{{{{{{{{{{{{{{''''_7>@oOX2)''{{'''''''''''''''''_W52<<$>>>@>@>&>32VQ''''''''''''''",
"{{{{{{{{{{{{{{{{{{{{{{''''_w@O.OX2T''{{{_]'''''''''''''''''))bCcsSScscsee0kcI'''''']'''''{",
"{{{{{{{{{{{{{{{{{{{{{{'{''_9>XOOO2I'']{{{{]']]'''''''''''''''''''''''''''_'IE'''''''''''{{",
"{{{{{{{{{{{{{{{{{{{{{{'{''_9,.XOO2Y/'''{{{{{'''''''''''''''''''''''''''''''''''''''''''{''",
"{{{{{{{{{{{{{{{{{{{{{{'{]')B=.OXO&eY'''{{{{{{{{']'']]'''''''''''''''''''''''''''''''''{{_'",
"{{{{{{{{{{{{{{{{{{{{{{_{]'_BV...OO>x/'''{{{{{{{{{{{']]']''''''''''''''''''''''''''']'{{''{",
"{{{{{{{{{{{{{{{{{{{{{{{'''_ys%X..o%qDP'''{{{{{{{{{{{{{{{{]']'''''''''''''''''']''''{{']'{{",
"{{{{{{{{{{{{{{{{{{{{{{{'{''_0<XXXoo2fs!_]]{]{{{{{{{{{{{{{{{]''''''''''''''']']]']]]']_{{{{",
"{{{{{{{{{{{{{{{{{{{{{{{'{''_9t&OO..X&*pWHL'{]{{{{{{{{{{{{{{{{']''''''''']'{{'''{{{{{{{{{{{",
"{{{{{{{{{{{{{{{{{{{{{{{_{''_y0>.OOOX.X>qjxLY{{{{{{{{{{{{{{{{{{{{{'''']{{']]]_{{{{{{{{{{{{{",
"{{{{{{{{{{{{{{{{{{{{{{{'{'''_7;OOOOOOX.@>mkH~F{{{{{{{{{{{{{{{{{{{{{{{''''{{{{{{{{{{{{{{{{{",
"{{{{{{{{{{{{{{{{{{{{{{{{''''_t;5OOOXOOOO%.*<Dx!F{{{{{{{{{{{{{{{{{{{{{{{{{{{{{{{{{{{{{{{{{{",
"{{{{{{{{{{{{{{{{{{{{{{{{{_'''_91XXXOXOOOOOXX,*px!{{{{{{{{{{{{{{{{{{{{{{{{{{{{{{{{{{{{{{{{{",
"{{{{{{{{{{{{{{{{{{{{{{{{{'{''''J9>%%OOOOOOOOo@>1xnbUz{{{{{{{{{{{{{{{{{{{{{{{{{{{{{{{{{{{{{",
"{{{{{{{{{{{{{{{{{{{{{{{{{'{]'''''/w>%XOOO.OOOO.@$-kWbFF{{{{{{{{{{{{{{{{{{{{{{{{{{{{{{{{{{{",
"{{{{{{{{{{{{{{{{{{{{{{{{{{'''''''''H*%%OOOOOOOOXX@>4Zcxv{{{{{{{{{{{{{{{{{{{{{{{{{{{{{{{{{{",
"{{{{{{{{{{{{{{{{{{{{{{{{{{{''''''''''We%X>OOOOOOOOO%X53fD`{{{{{{{{{{{{{{{{{{{{{{{{{{{{{{{{",
"{{{{{{{{{{{{{{{{{{{{{{{{{{{{'''''''''''_W<$>OOO@OOOOXX>>1^I['']{{{{{{{{{{{{{{{{{{{{{{{{{{{",
"{{{{{{{{{{{{{{{{{{{{{{{{{{{{{'''''''''''''F*@>XOOOOOOOOO<4G)]]']]'{{{{{{{{{{{{{{{{{{{{{{{{",
"{{{{{{{{{{{{{{{{{{{{{{{{{{{{{{''''''''''''''F12>.OOOOOoOOOZb''']'{{{{{{{{{{{{{{{{{{{{{{{{{",
"{{{{{{{{{{{{{{{{{{{{{{{{{{{{{{{''']''''''_''''D3>%X&OOOO6OOc'''''']']]{{{{{{{{{{{{{{{{{{{{",
"{{{{{{{{{{{{{{{{{{{{{{{{{{{{{{{{_'']''''''''''''Fm>2&O6OOO''''''''']']{]'''{{{{{{{{{{{{{{{",
"{{{{{{{{{{{{{{{{{{{{{{{{{{{{{{{{{''''''''''''''''')D<2<&2s_''''''''']]]]'{{{{{{{{{{{{{{{{{",
"{{{{{{{{{{{{{{{{{{{{{{{{{{{{{{{{{{'''''''''''''''''''WB30mBI'''''''']]'''''''{{{{{{{{{{{{{",
"{{{{{{{{{{{{{{{{{{{{{{{{{{{{{{{{{{{{']]''''''''''''''''__bkE''''''''''''''''''{{{{{{{{{{{{",
"{{{{{{{{{{{{{{{{{{{{{{{{{{{{{{{{{{{{{{']]'''''''''''''''''''''''''''''''''''''{{{{{{{{{{{{",
"{{{{{{{{{{{{{{{{{{{{{{{{{{{{{{{{{{{{{{{{']]'''''''''''''''''''''''''''''''''{{{{{{{{{{{{{{",
"{{{{{{{{{{{{{{{{{{{{{{{{{{{{{{{{{{{{{{{{{{]']]'''''''''''''''''''''''''''''{{{{{{{{{{{{{{{",
"{{{{{{{{{{{{{{{{{{{{{{{{{{{{{{{{{{{{{{{{{{{'''''_''''''''''''''''''''''']]'{{{{{{{{{{{{{{{",
"{{{{{{{{{{{{{{{{{{{{{{{{{{{{{{{{{{{{{{{{{{{{'''''''''''''''''''''''''']'{']]''{{{{{{{{{{{{",
"{{{{{{{{{{{{{{{{{{{{{{{{{{{{{{{{{{{{{{{{{{{{{{']]]''''''''']'']'']]]]]]]]]'{{{{{{{{{{{{{{{",
"{{{{{{{{{{{{{{{{{{{{{{{{{{{{{{{{{{{{{{{{{{{{{{{{'']]]]]]]]'{{']]''{{{{{{{{{{{{{{{{{{{{{{{{",
"{{{{{{{{{{{{{{{{{{{{{{{{{{{{{{{{{{{{{{{{{{{{{{{{{{{{]]']]]''''{{{{{{{{{{{{{{{{{{{{{{{{{{{{",
"{{{{{{{{{{{{{{{{{{{{{{{{{{{{{{{{{{{{{{{{{{{{{{{{{{{{{{{{{{{{{{{{{{{{{{{{{{{{{{{{{{{{{{{{{{",
"{{{{{{{{{{{{{{{{{{{{{{{{{{{{{{{{{{{{{{{{{{{{{{{{{{{{{{{{{{{{{{{{{{{{{{{{{{{{{{{{{{{{{{{{{{",
"{{{{{{{{{{{{{{{{{{{{{{{{{{{{{{{{{{{{{{{{{{{{{{{{{{{{{{{{{{{{{{{{{{{{{{{{{{{{{{{{{{{{{{{{{{",
"{{{{{{{{{{{{{{{{{{{{{{{{{{{{{{{{{{{{{{{{{{{{{{{{{{{{{{{{{{{{{{{{{{{{{{{{{{{{{{{{{{{{{{{{{{",
"{{{{{{{{{{{{{{{{{{{{{{{{{{{{{{{{{{{{{{{{{{{{{{{{{{{{{{{{{{{{{{{{{{{{{{{{{{{{{{{{{{{{{{{{{{",
"{{{{{{{{{{{{{{{{{{{{{{{{{{{{{{{{{{{{{{{{{{{{{{{{{{{{{{{{{{{{{{{{{{{{{{{{{{{{{{{{{{{{{{{{{{",
"{{{{{{{{{{{{{{{{{{{{{{{{{{{{{{{{{{{{{{{{{{{{{{{{{{{{{{{{{{{{{{{{{{{{{{{{{{{{{{{{{{{{{{{{{{",
"{{{{{{{{{{{{{{{{{{{{{{{{{{{{{{{{{{{{{{{{{{{{{{{{{{{{{{{{{{{{{{{{{{{{{{{{{{{{{{{{{{{{{{{{{{",
"{{{{{{{{{{{{{{{{{{{{{{{{{{{{{{{{{{{{{{{{{{{{{{{{{{{{{{{{{{{{{{{{{{{{{{{{{{{{{{{{{{{{{{{{{{"
};
