/* XPM */
static char *result[] = {
/* columns rows colors chars-per-pixel */
"90 90 144 2 ",
"   c black",
".  c #010000",
"X  c #010100",
"o  c #020000",
"O  c #020100",
"+  c #030100",
"@  c #030101",
"#  c #030201",
"$  c #040201",
"%  c #050301",
"&  c #050302",
"*  c #060302",
"=  c #050500",
"-  c #070402",
";  c #090503",
":  c #0A0503",
">  c #0B0603",
",  c #0B0604",
"<  c #0C0604",
"1  c #0C0704",
"2  c #0D0704",
"3  c #0D0705",
"4  c #0E0704",
"5  c #0E0705",
"6  c #0C0606",
"7  c #0D0707",
"8  c #0D0805",
"9  c #0E0804",
"0  c #0E0805",
"q  c #0F0805",
"w  c #0F0806",
"e  c #0F0906",
"r  c #110704",
"t  c #100905",
"y  c #110906",
"u  c #110A06",
"i  c #110B06",
"p  c #130A06",
"a  c #120A07",
"s  c #130B07",
"d  c #140B07",
"f  c #140B08",
"g  c #150C08",
"h  c #16100B",
"j  c #1F100C",
"k  c #201009",
"l  c #24120B",
"z  c #20120C",
"x  c #21110E",
"c  c #23130E",
"v  c #24130C",
"b  c #22140C",
"n  c #23140D",
"m  c #24140D",
"M  c #26150D",
"N  c #25150E",
"B  c #28170E",
"V  c #2A180F",
"C  c #291710",
"Z  c #281810",
"A  c #2A1810",
"S  c #2A1910",
"D  c #2E1B12",
"F  c #301B12",
"G  c #301C12",
"H  c #351E13",
"J  c #371E13",
"K  c #351D14",
"L  c #351D15",
"P  c #351E15",
"I  c #371E14",
"U  c #371F14",
"Y  c #371E15",
"T  c #371F15",
"R  c #3C2317",
"E  c #452618",
"W  c #452719",
"Q  c #45281A",
"!  c #4F2C1C",
"~  c #4F2D1E",
"^  c #4F2D20",
"/  c #5A3321",
"(  c #5A3322",
")  c #5A3422",
"_  c #673A25",
"`  c #673B27",
"'  c #76412A",
"]  c #76422A",
"[  c #76422B",
"{  c #76432B",
"}  c #75432C",
"|  c #76432C",
" . c #76442C",
".. c #77442C",
"X. c #76442D",
"o. c #874C32",
"O. c #874D32",
"+. c #874D33",
"@. c #874E33",
"#. c #874E34",
"$. c #8E4D32",
"%. c #9C5536",
"&. c #9C5537",
"*. c #9C5636",
"=. c #9C5637",
"-. c #9C5D37",
";. c #9C5F37",
":. c #9C5638",
">. c #9C5738",
",. c #9C5739",
"<. c #9F573A",
"1. c #9C5838",
"2. c #9C5839",
"3. c #9C5939",
"4. c #9C583A",
"5. c #9C593A",
"6. c #9C593B",
"7. c #9C5A3A",
"8. c #9C5A3B",
"9. c #9C5F38",
"0. c #9E583D",
"q. c #9E593D",
"w. c #9C5A3C",
"e. c #9E5A3C",
"r. c #A35637",
"t. c #A65636",
"y. c #A25739",
"u. c #A45738",
"i. c #A5563F",
"p. c #A35838",
"a. c #A2593A",
"s. c #A3593A",
"d. c #A45839",
"f. c #A4593A",
"g. c #A25E38",
"h. c #A55A3C",
"j. c #9B6139",
"k. c #9A5940",
"l. c #9B5941",
"z. c #A55740",
"x. c #A45841",
"c. c #A55841",
"v. c #A45942",
"b. c #A06040",
/* pixels */
"w.w.w.w.6.6.,.6.6.8.w.w.w.w.w.w.w.w.w.w.w.w.w.w.w.w.w.w.w.w.w.w.w.w.w.X.                                              !  .8.w.w.w.s.8.=.4.8.2.4.w.6.w.w.5.>.9.l.b.w.w.6.8.,.6.6.w.w.",
"4.6.6.8.w.w.w.w.w.w.w.w.w.8.8.8.8.8.8.8.8.8.8.8.8.8.8.8.8.8.8.8.8.8. .                                              # % $ d w.w.w.w.w.2.w.w.2.4.w.4.w.w.5.=.a.a.8.8.8.8.5.2.w.6.w.w.",
"w.w.w.w.w.w.w.8.8.8.8.8.8.,.4.5.2.5.5.5.5.5.5.2.5.5.6.6.6.5.5.4.5.6.( X                                                 & w.w.w.w.w.w.,.w.8.2.,.w.6.w.w.5.r.e.<.8.6.6.8.5.2.w.4.w.w.",
"w.w.8.8.8.8.8.4.4.>.5.5.5.8.8.8.8.8.8.8.8.6.5.7.8.8.w.w.w.>.,.w.6.d   O .                                               { w.w.w.w.6.8.6.4.8.>.,.w.6.w.w.2.&.w.w.w.w.w.w.5.>.w.6.w.w.",
"8.5.,.>.5.5.5.8.8.8.6.8.8.8.8.8.8.8.8.8.8.8.8.5.w.8.w.w.8.5.4.w.6.w.e $                                               O 4.w.w.8.w.4.8.6.w.w.2.4.w.6.w.w.5.,.w.w.8.8.8.8.2.>.w.6.w.w.",
"5.5.8.8.8.8.8.8.8.w.w.8.8.8.8.>.2.4.5.5.2.5.w.8.w.5.w.w.8.5.4.w.6.w.G                                                 3 4.w.w.5.w.8.8.4.w.w.5.4.w.6.w.w.5.%.6.8.w.w.4.4.5.4.w.6.w.w.",
"8.8.8.w.8.8.8.8.8.8.5.6.6.4.6.8.8.8.,.8.>.,.w.6.w.5.w.w.8.5.4.w.6.w.1                                                 3 w.w.w.2.w.8.w.6.w.w.2.4.w.6.w.w.5.&.w.w.w.w.w.>.5.4.w.6.w.w.",
"8.5.4.w.=.=.5.2.5.6.6.8.w.w.w.w.w.8.w.2.=.4.w.,.8.>.w.w.8.5.4.w.4.d N                                                 * w.w.w.2.4.8.w.6.w.w.5.4.w.4.w.w.6.,.w.w.8.2.*.6.5.4.w.6.w.w.",
"8.5.4.8.2.4.w.8.2.8.w.w.4.4.w.w.w.w.w.8.5.%.w.&.8.2.w.w.8.5.,.w.6.d e                                                 2 w.w.8.4.5.8.w.6.4.8.2.,.w.6.w.w.5.5.8.=.=.%.>.w.5.4.w.6.w.w.",
"8.>.6.8.5.4.w.8.w.2.8.8.w.4.w.w.w.w.w.8.5.%.6.5.8.2.w.w.8.2.,.w.6.T A                                                 0 w.w.2.w.8.8.w.8.w.w.>.,.w.6.w.w.2.=.&.>.5.8.8.w.4.4.w.6.w.w.",
"5.2.w.8.5.,.4.6.w.8.2.2.w.w.8.4.6.w.w.w.8.>.:.5.8.5.w.w.8.5.4.w.6.d G                                                 ` w.w.5.6.8.5.w.6.w.w.2.4.w.6.w.w.%.%.6.8.8.8.,.w.5.4.w.6.w.w.",
"5.>.w.8.=.,.,.6.w.5.8.2.8.8.8.w.w.6.4.w.8.8.w.,.8.5.w.w.8.5.4.w.6.T X.                                                X.w.8.4.4.8.8.w.6.w.w.5.4.w.4.,.:.4.8.w.8.8.w.w.8.5.4.w.6.w.w.",
"2.>.w.2.%.4.5.6.w.=.8.5.6.2.8.8.8.w.w.6.w.8.w.,.8.5.w.w.8.5.4.w.4.d #.                                                ` w.5.w.8.8.:.w.6.w.w.5.,.4.,.4.6.8.8.w.w.w.w.8.w.5.4.w.4.w.w.",
"5.2.w.>.>.4.5.6.6.%.w.5.w.8.8.5.2.8.w.8.w.w.8.w.>.>.w.w.8.5.,.w.6.T #.@                                               ` w.2.w.8.8.:.w.6.w.w.2.:.:.4.w.w.4.=.w.w.6.8.w.w.5.,.w.6.w.w.",
"5.4.w.5.2.4.4.6.8.%.8.2.6.2.w.8.8.5.w.w.8.w.8.w.2.5.w.w.8.2.,.w.6.T w.4                                               #.w.2.w.8.8.%.w.6.w.w.6.w.w.w.w.w.w.w.6.8.w.w.w.w.2.,.w.6.w.w.",
"5.4.w.5.>.w.6.w.8.>.5.2.6.2.w.8.8.5.8.w.w.6.w.w.8.=.w.w.8.5.4.w.6.w.T 8                                               X.w.5.w.8.8.&.w.4.w.w.8.w.w.w.w.w.4.8.w.w.w.w.w.8.5.4.w.6.w.w.",
"5.4.w.2.,.w.6.w.,.%.5.2.6.2.w.8.5.6.4.8.w.8.w.8.8.=.w.w.8.5.4.w.6.w.T b                                               X.w.2.w.8.8.:.4.6.w.w.4.w.w.w.w.8.w.w.w.w.w.8.5.8.5.4.w.6.w.w.",
"u.4.6.5.4.w.6.6.&.>.8.4.6.2.w.8.8.8.8.5.w.w.8.w.8.2.6.w.8.5.4.w.4.w.d t                                               X.w.5.w.8.8.8.6.6.w.w.%.w.w.6.8.w.w.w.w.8.7.%.6.w.5.4.6.w.w.w.",
"c.,.8.5.4.w.6.4.5.2.8.4.6.4.w.8.5.4.5.4.8.w.8.w.8.8.,.w.8.5.,.w.6.w.T C                                                .w.2.w.8.w.8.6.6.4.w.%.2.8.w.w.w.w.w.5.>.5.8.w.w.2.6.6.w.w.w.",
";.,.8.2.4.w.6.8.5.2.8.6.5.4.w.2.%.8.8.8.5.w.w.8.w.8.,.w.8.2.,.w.6.w.T v                                                .w.2.w.8.w.8.,.,.:.w.8.8.8.w.w.w.8.5.4.8.8.8.w.6.,.w.6.w.w.6.",
"p.4.8.5.4.w.6.8.5.4.8.w.5.,.w.=.>.8.5.8.6.8.w.8.w.8.6.6.8.5.4.w.6.w.T b                                             .  .w.2.w.w.8.8.4.,.2.w.2.8.8.8.8.8.5.6.8.8.8.4.w.6.2.w.6.w.w.6.",
"d.4.8.4.4.w.6.8.5.6.4.w.2.,.w.5.2.4.8.8.w.2.w.w.8.8.w.,.8.5.4.w.6.w.d 9                                               [ w.4.8.w.8.8.w.>.2.w.:.8.8.>.4.4.8.w.8.8.2.6.w.5.2.w.4.w.w.6.",
"x.4.8.5.4.w.6.8.2.8.5.w.5.4.w.5.2.w.8.6.8.6.8.w.8.w.w.4.8.5.4.w.4.w.T M                                               ' w.w.2.w.8.8.w.=.2.,.5.8.8.2.w.w.2.w.8.8.6.4.6.6.>.w.6.w.w.6.",
"b.6.8.5.4.w.8.5.2.8.2.w.5.4.w.5.,.w.8.w.8.w.5.w.8.w.w.w.2.5.,.w.6.w.T C                                               ' w.w.5.w.8.w.w.2.:.4.8.8.8.2.w.w.5.w.8.8.4.6.6.4.,.w.,.w.w.2.",
"h.5.8.5.4.w.8.5.2.8.2.w.5.4.w.2.,.w.6.w.8.w.2.w.w.8.8.w.>.2.,.w.6.w.T 2                                               [ 8.w.5.w.8.w.8.8.%.8.5.6.8.6.w.w.5.w.8.8.5.6.w.5.:.w.:.w.w.5.",
"g.8.8.5.,.w.8.5.2.8.6.w.5.4.w.2.4.w.6.w.6.8.6.8.w.8.w.w.5.2.4.w.6.w.d B                                               @.8.8.2.w.w.8.w.8.>.5.8.&.8.w.w.w.5.w.8.8.5.6.w.>.%.w.2.w.w.,.",
"0.8.8.2.,.w.8.5.>.8.w.w.5.4.w.5.4.w.6.w.w.8.w.5.w.8.w.w.8.=.4.w.6.w.T b                                             .  .w.8.6.8.w.8.w.8.8.>.:.6.5.w.w.w.5.6.8.8.8.w.8.=.>.w.5.w.w.=.",
"d.8.8.5.4.w.8.2.6.5.w.w.5.4.w.5.4.w.6.w.w.8.8.2.w.w.8.w.8.>.4.w.6.w.T M                                             . 4.w.6.w.5.w.w.8.8.8.=.:.8.5.w.w.8.6.6.8.5.8.w.8.2.>.w.6.w.w.=.",
"z.8.w.5.4.w.8.5.8.5.w.w.5.4.w.5.4.w.6.w.w.4.6.6.8.w.8.w.8.2.,.w.6.w.d w                                             O 4.w.4.w.6.8.w.8.w.8.%.5.8.2.w.w.5.w.8.8.2.w.5.w.5.2.w.6.w.w.5.",
"j.5.w.5.4.w.8.5.8.2.w.w.5.4.w.2.4.w.6.w.w.8.5.w.5.w.w.8.8.8.:.w.4.w.T b                                             : 4.w.6.8.w.5.w.8.w.8.8.,.6.2.w.w.5.w.8.8.2.w.5.w.5.4.w.6.w.w.5.",
"5.5.w.5.4.w.8.5.8.5.w.w.5.4.w.2.4.w.4.w.w.8.,.w.6.8.w.8.w.8.%.w.6.w.T B                                           . : 4.w.8.8.w.2.w.w.8.w.w.4.5.2.w.w.5.w.8.8.5.2.w.w.2.4.w.4.w.w.5.",
"f.5.w.5.4.w.8.5.8.5.w.w.5.4.w.5.,.w.6.w.w.8.4.8.w.5.w.8.w.8.:.6.6.w.T <                                             x ,.w.8.w.8.6.8.w.8.w.w.5.2.2.w.w.5.w.8.8.8.8.w.w.2.,.w.6.w.w.5.",
"f.2.w.5.4.w.8.2.8.5.w.w.2.4.w.2.,.w.6.w.w.4.8.8.w.2.w.w.8.8.6.4.6.w.d C                                             - ,.w.6.w.8.w.5.w.w.8.8.5.>.2.w.w.5.w.8.8.8.8.w.w.>.,.w.6.w.w.2.",
"8.6.w.5.4.6.w.5.6.4.w.w.5.4.w.5.4.w.6.w.w.2.8.6.8.6.8.w.8.w.8.4.w.w.T 8                                             ^ 4.w.6.w.4.8.6.8.w.8.w.8.5.4.w.w.2.w.8.8.8.8.w.w.5.4.w.6.w.w.5.",
"8.w.w.2.6.6.w.2.8.5.w.w.5.4.w.5.4.w.6.w.w.5.6.w.8.w.5.w.8.w.8.,.w.w.T c                                             ../ w.6.w.4.8.w.5.w.8.w.8.8.4.w.w.5.w.8.5.8.8.w.w.5.4.w.6.w.w.5.",
"2.w.6.2.w.6.6.2.8.4.w.w.5.4.w.5.4.w.w.6.w.2.,.w.8.w.5.w.w.8.w.,.w.w.d 3                                             r / w.6.6.8.8.8.2.w.w.8.w.8.6.w.w.5.6.8.8.8.w.w.w.2.4.w.6.w.w.5.",
"4.w.6.2.w.6.5.2.8.4.w.w.5.4.w.5.6.6.w.6.w.5.4.w.5.w.6.8.w.8.w.,.6.w.U n                                               / X.6.&.8.8.8.6.8.w.8.w.8.6.w.8.6.6.8.8.8.w.w.w.2.4.w.6.w.w.5.",
"6.w.6.2.w.6.5.2.8.6.w.w.5.4.w.8.6.4.w.6.w.5.4.w./ ~ w.5.w.8.w.8.6.w.d 8                                               y X.&.6.8.8.8.w.5.w.w.8.8.4.w.5.w.8.8.8.5.w.w.8.2.4.w.4.w.w.5.",
"w.w.6.2.w.6.5.2.8.w.w.w.5.4.w.8.6.4.w.6.w.5./ R W ) w.2.w.8.w.8.6.w.U l                                               O | %.8.8.w.6.w.` ) X.8.8.4.w.5.w.8.8.8.6.w.w.8.5.,.w.6.w.w.5.",
"w.w.6.4.w.6.5.8.5.w.w.w.5.4.w.5.6.4.w.4.w.W g D O . w./ ~ 8.w.8.6.w.f >                                               O o.8.w.6.w.` ) Q W Q 8.8.6.6.5.w.8.8.8.w.w.w.8.2.,.w.6.w.w.2.",
"w.w.5.4.w.4.5.8.5.w.w.8.5.4.w.5.6.,.w.6.X.H .     @ X.W ) w.8.8.4.w.K j                                               * #.8.8.w.` m z @ O q ` )  .6.2.w.8.8.5.w.w.w.8.2.4.w.6.w.w.5.",
"w.w.5.,.w.8.5.6.5.w.w.8.5.4.w.5.2.,.w.6.w.    O     @ . Q ~ 8.8.6.w.f ;                                               y X.8.4.w.) O .       ) Q Q 6.5.6.8.8.>.w.w.8.8.5.4.w.6.w.w.5.",
"w.w.2.,.w.8.2.6.5.w.w.8.5.4.w.8.5.4.w.6.d               . ) 8.8.4.w.Y h                                               . #.8.w.w.-           @ , Q | 6.6.8.8.6.w.w.5.w.5.4.w.6.w.w.5.",
"w.w.5.4.w.8.5.8.5.w.w.8.5.4.w.8.5.4.w.w.8.d               X.8.8.4.w.p =                                               . @.w.w.w.@               ; E w.8.8.8.w.w.w.5.w.5.4.w.4.w.w.5.",
"w.8.5.4.w.8.5.8.5.w.w.8.5.,.8.8.2.6.6.w.8.                w.8.8.6.6.L                                                 O | 6.w.w.8.                ] w.8.8.5.w.w.w.2.8.2.,.w.6.w.w.5.",
"w.8.5.4.w.8.5.8.5.w.w.8.2.,.8.8.8.6.4.w.O .             d w.8.8.8.6.d .                                               O #.8.w.8._                 2.6.8.8.6.w.w.8.6.8.2.,.w.6.w.w.2.",
"w.8.5.4.w.8.2.8.2.w.w.8.5.4.8.8.8.6.4.d   O           1 2.w.8.w.8.6.Y 6                                               O #.8.w.- X ;             d 8.>.w.8.w.w.w.5.w.8.5.4.w.6.w.w.5.",
"w.8.5.4.w.8.2.8.5.w.w.8.5.4.8.8.5.6.4.w.d O         O   . w.8.w.8.4.Y 7                                               O X.6.w.@               Q w.8.%.w.8.w.w.w.5.6.8.5.4.w.6.w.w.5.",
"w.8.5.4.6.8.5.8.5.w.w.8.5.4.8.8.2.6.4.w.d 5.d @   X     @ w.w.8.w.4.d o                                               O #.6.w.w.s               d 8.6.6.6.w.w.8.6.4.8.5.4.w.6.w.w.5.",
"w.8.2.6.6.8.5.8.5.w.w.8.5.4.2.w.5.5.4.w.8.5.d d :  .d @ d 8.w.8.w.4.d i                                               O #.4.w.w.8.5.s . .         8.8.2.w.w.w.5.w.8.8.2.4.w.4.w.w.5.",
"w.5.2.w.6.8.5.8.5.w.w.8.5.2.%.w.8.5.6.8.8.5.4.w. .8.d d w.5.w.8.w.6.U O                                               O X.6.w.w.8.2.6.6.} | s O d w.8.,.8.w.w.2.5.8.8.2.,.w.6.w.w.5.",
"8.5.2.w.6.8.5.8.5.w.w.8.5.>.>.w.8.8.6.8.8.5.4.w.8.8.6.w.w.5.w.8.w.8.U 7                                               O #.6.w.w.8.5.8.w.8.w.5.w.8.w.8.6.8.8.8.5.,.8.w.2.,.w.6.w.w.2.",
"5.6.2.w.6.8.5.8.5.w.w.8.5.5.2.6.w.8.6.8.8.5.4.w.8.8.6.8.w.5.w.8.w.8.d +                                               O #.6.w.w.8.5.4.8.8.w.5.w.w.8.w.2.8.8.5.6.w.8.w.2.4.w.6.w.w.5.",
"5.6.2.w.8.8.5.6.5.w.w.8.5.2.5.6.w.6.6.6.8.5.4.w.8.8.w.8.w.2.w.8.w.8.J 7                                               O #.6.w.w.8.2.6.8.5.w.6.8.w.8.w.%.8.>.2.w.w.8.8.5.4.w.6.w.w.6.",
"5.6.4.w.8.8.5.6.5.w.w.8.2.2.w.4.w.6.4.6.8.5.4.w.8.5.w.8.w.5.w.w.8.8.d :                                               * #.6.w.w.5.2.w.8.,.w.w.5.w.8.8.:.5.8.8.w.8.6.8.2.4.w.4.w.w.6.",
"5.5.4.w.8.8.5.8.5.w.w.8.2.>.w.6.w.6.5.8.8.5.4.w.8.5.w.5.w.6.8.w.8.8.I k                                               * X.6.w.w.5.2.w.8.4.w.w.2.w.8.8.5.2.8.w.8.5.w.8.2.,.w.6.w.w.6.",
"8.5.,.w.8.8.5.8.5.w.w.8.2.=.w.6.w.w.5.8.8.5.,.w.8.2.w.2.w.w.5.w.8.8.d b                                               . o.:.w.w.5.2.w.5.=.8.w.5.w.8.w.8.2.w.6.w.4.6.w.>.,.w.6.w.w.4.",
"8.2.,.w.8.8.5.8.6.w.w.8.5.2.6.w.w.w.5.8.8.2.,.w.8.5.w.5.w.w.5.w.8.8.U 3                                               @ +.6.6.w.5.2.,.8.5.8.w.5.w.8.w.8.2.6.w.w.6.w.8.4.4.w.6.w.w.6.",
"8.5.4.w.8.8.5.8.w.w.w.8.2.6.6.w.w.w.5.8.8.5.4.w.8.5.w.5.w.w.5.w.8.8.d >                                               - +.&.:.w.5.:.6.8.8.8.w.5.w.w.8.8.w.w.w.6.w.8.8.5.4.w.w.6.w.5.",
"8.5.4.w.8.8.8.2.w.w.w.5.2.w.6.w.w.8.5.8.8.5.4.w.8.5.w.5.w.w.2.w.8.8.U N                                               * ,.>.6.6.2.:.8.8.8.2.w.4.8.w.8.8.w.6.6.w.2.4.8.5.6.6.w.6.w.5.",
"8.5.4.w.8.8.8.4.w.w.8.5.2.w.6.w.w.8.5.8.8.5.4.w.8.5.w.4.w.w.5.w.8.8.U 1                                               u 8.2.2.8.>.8.6.8.8.4.w.w.5.w.8.8.6.w.8.5.>.w.8.8.6.4.w.6.w.8.",
"w.5.4.w.8.8.8.4.w.w.5.6.>.6.w.w.w.8.5.8.8.5.4.w.8.2.w.5.w.w.5.w.8.8.d 1                                             O u 8.2.2.,.5.8.8.6.8.w.w.w.2.w.8.8.w.8.>.4.8.w.8.8.6.4.w.4.w.8.",
"w.5.4.w.8.8.8.4.w.w.5.4.5.6.w.w.w.8.5.8.8.5.4.w.8.5.w.2.w.w.5.w.8.8.d 0                                             * A w.5.:.>.8.6.8.w.5.w.w.w.2.4.8.8.7.>.w.8.5.6.8.5.6.,.w.6.w.8.",
"w.5.4.w.8.w.8.4.w.w.2.4.w.4.w.w.6.8.5.6.8.5.4.w.8.5.w.5.w.w.5.w.8.8.J 3                                             O G w.2.%.8.5.8.w.w.2.w.w.8.4.6.8.8.,.5.8.8.,.6.8.:.4.,.w.6.w.8.",
"w.5.4.w.5.w.8.2.w.w.2.>.w.6.w.w.6.8.2.6.8.5.,.w.8.2.w.2.w.w.5.w.8.8.d 1                                             @ G w.%.8.=.8.w.w.w.5.w.w.2.w.8.8.=.5.8.8.5.4.8.8.4.6.4.w.4.w.w.",
"w.5.4.w.5.w.8.5.w.w.2.>.w.6.w.w.4.8.5.8.8.2.,.w.8.2.w.,.w.w.2.w.8.8.d z                                             - #.&.5.5.8.6.w.w.w.5.w.w.5.w.8.8.5.8.8.8.5.,.6.8.w.5.,.w.6.w.w.",
"8.5.4.w.4.6.8.5.w.w.5.2.w.6.w.w.6.8.5.8.8.5.4.w.8.>.8.:.w.w.5.w.8.8.d <                                             * :.%.8.8.8.w.w.w.8.2.w.w.2.w.8.8.5.8.8.w.5.&.8.6.w.2.,.w.6.w.w.",
"8.5.4.8.4.6.8.5.w.w.5.4.w.6.w.w.5.8.5.8.8.5.4.w.8.5.8.4.8.w.2.w.8.8.d <                                             u %.8.8.8.w.w.w.w.8.>.w.w.5.w.8.8.-.6.w.w.>.6.8.w.w.5.4.w.4.w.w.",
"8.5.4.8.2.6.8.5.w.w.5.4.6.w.w.w.5.5.4.6.8.5.4.w.8.8.8.w.8.w.2.8.8.8.d 5                                           O y 5.8.8.w.w.w.w.8.8.5.w.w.5.w.8.8.4.4.w.5.&.8.:.w.w.5.,.w.6.w.w.",
"8.5.4.8.2.6.8.2.w.w.2.6.6.w.w.w.,.5.>.6.8.5.6.6.8.8.5.w.8.8.1.8.8.8.T <                                           * V 8.8.6.w.w.w.8.2.8.5.w.w.5.w.8.8.w.:.w.2.5.w.6.w.w.2.,.w.4.w.w.",
"8.5.,.8.2.6.8.5.w.6.>.w.6.w.w.6.w.8.2.8.8.8.6.4.8.8.5.w.w.5.4.8.8.8.d q                                           O G 8.8.w.w.w.8.5.5.8.2.w.w.2.w.8.8.w.6.,.>.8.8.w.w.w.5.,.w.6.w.w.",
"8.2.,.8.6.5.6.5.w.6.2.w.4.w.w.6.w.8.5.8.8.8.6.4.8.8.5.w.w.5.w.8.8.:.d q                                           @ F 8.w.w.w.w.5.2.8.8.6.w.w.5.w.8.8.w.6.%.5.8.4.w.w.w.2.,.w.4.w.w.",
"w.5.4.8.w.2.6.5.w.6.=.w.6.w.w.6.6.8.6.8.8.6.6.,.8.8.2.w.w.5.w.8.f.4.d X.                                          - @.4.w.w.w.8.2.:.8.8.w.w.w.5.w.8.8.w.4.>.5.8.w.w.w.8.5.,.w.4.w.w.",
"w.5.6.5.w.5.8.5.w.4.>.w.6.w.w.4.6.w.8.8.8.6.4.,.8.w.5.w.w.5.w.8.8.6.d X.                                          * 8.6.w.w.8.1.:.8.8.5.w.w.w.5.6.8.8.w.6.2.2.6.w.w.w.8.2.:.w.4.w.w.",
"8.5.6.5.w.5.8.5.w.6.4.w.6.w.w.5.,.8.,.w.8.6.6.8.5.w.5.w.w.5.w.8.8.6.d X.O                                         u 8.w.w.w.3.%.w.8.w.5.w.w.8.6.6.8.8.6.w.2.5.w.w.w.8.8.>.:.w.6.w.w.",
"8.5.8.5.w.5.8.5.w.5.4.6.w.w.w.8.8.8.4.w.8.w.8.8.2.w.5.w.w.2.w.8.8.6.d d O                                       X u 2.w.w.8.=.2.8.8.w.5.w.w.5.w.8.8.6.6.w.5.%.w.w.w.5.8.2.,.w.4.w.w.",
"8.5.8.2.w.5.8.5.w.2.4.4.4.6.6.5.8.8.4.8.4.w.8.8.5.w.5.w.w.5.w.8.8.,.w.d O                                       * G 6.w.w.2.5.8.w.4.w.2.w.w.5.w.8.8.,.w.5.8.=.w.w.8.6.8.5.,.w.6.w.w.",
"5.t.5.4.6.2.5.>.,.=.4.4.6.w.6.5.8.5.2.8.6.w.6.w.5.w.5.w.w.5.w.8.8.:.w.d 1                                       * A w.w.w.5.5.,.w.8.w.5.w.w.5.w.8.8.4.w.5.8.,.8.w.5.w.8.2.,.w.4.w.w.",
"5.i.5.6.6.>.4.>.,.%.,.2.6.5.2.=.8.8.8.8.2.w.4.w.4.w.5.w.w.5.w.8.8.,.w.d <                                       O F w.w.w.8.2.,.w.6.w.2.w.w.5.w.8.8.,.2.8.8.:.5.5.=.8.8.5.,.w.4.w.w.",
"2.2.>.2.>.=.2.5.8.8.8.8.5.,.%.%.w.w.8.8.8.8.6.8.5.w.5.w.w.5.w.8.8.4.w.d 2                                       @ O.w.w.8.8.5.4.w.:.6.5.w.w.2.w.8.8.,.5.8.8.>.2.8.3.5.2.2.:.4.4.w.w.",
"v.f.8.w.w.8.8.8.5.2.6.6.6.&.%.=.2.8.8.6.8.8.8.8.,.w.2.w.w.5.w.8.8.,.w.d <                                       - +.w.w.5.w.5.&.:.4.8.2.w.w.5.w.8.8.5.4.8.8.2.2.5.2.5.6.%.%.4.w.w.w.",
"w.w.w.w.w.w.6.:.,.4.6.,.%.,.6.4.,.8.>.w.6.,.8.8.5.w.5.w.w.5.w.8.8.6.w.d N                                       * w.w.w.>.:.%.&.:.8.8.2.w.w.5.w.8.8.5.6.8.8.w.5.>.,.8.8.%.&.:.w.w.4.",
"w.w.w.w.w.,.&.:.8.8.2.=.=.>.>.2.2.8.=.w.4.4.8.8.5.w.6.w.w.5.w.8.8.4.w.d 2                                       u w.4.,.=.=.%.8.8.8.5.2.w.w.5.w.8.w.>.w.8.w.w.w.4.6.>.5.5.4.w.4.4.4.",
"w.w.w.w.4.:.,.5.5.2.=.>.2.5.2.2.5.8.2.w.w.6.4.8.5.w.6.w.w.2.w.8.w.:.w.d z                                     X y 4.&.%.5.8.8.8.>.w.w.6.w.w.5.w.8.8.2.w.8.w.w.w.w.w.w.w.8.w.6.4.4.4.",
"6.6.6.6.4.8.8.5.,.,.4.4.2.,.:.>.2.8.5.6.w.w.w.8.%.w.6.w.w.5.w.8.w.6.6.d A                                     * V w.w.8.w.8.8.w.w.w.8.5.w.w.5.w.8.8.8.w.8.w.w.w.w.w.w.w.w.w.w.w.4.4.",
"w.w.w.w.w.w.w.w.w.w.w.8.8.8.w.w.w.w.8.6.w.w.w.8.=.w.6.w.w.5.w.8.w.8.&.T q                                     O F w.w.8.w.w.w.w.6.8.w.4.w.w.2.w.8.8.8.w.w.8.w.w.w.w.w.w.w.w.w.w.w.4.",
"8.8.8.8.8.8.w.w.w.w.w.w.w.w.w.w.w.w.8.w.6.w.w.w.,.w.4.8.w.5.w.8.w.w.6.d A                                     O U w.w.w.w.w.4.8.w.w.8.w.w.w.5.w.8.8.8.8.w.w.4.6.4.6.6.4.w.w.w.w.w.s.",
"6.4.6.6.6.w.w.w.w.w.w.w.w.w.w.w.w.w.4.8.4.8.w.w.6.w.w.8.w.5.w.8.w.w.4.J @.                                    3 2.w.w.w.6.8.w.w.w.w.4.8.w.w.5.4.8.8.8.5.8.8.8.8.8.7.w.w.6.4.w.w.w.8.",
"w.w.w.w.4.4.6.w.w.w.w.w.w.w.w.w.w.w.8.8.8.5.5.w.4.w.w.8.w.5.w.w.8.w.w.U S                                     P 5.4.,.8.w.w.w.w.w.8.8.8.8.8.2.2.8.8.4.8.4.6.8.8.8.8.8.8.w.w.4.4.4.a.",
",.6.6.w.w.w.w.6.4.6.6.6.6.6.4.6.6.8.w.w.w.8.8.8.w.w.w.=.w.4.8.w.8.w.s.a $.U                                   Z q.w.w.8.w.w.w.8.5.,.,.8.8.5.,.8.8.8.w.w.w.w.w.w.8.8.6.2.8.8.w.:.y.k."
};
