/* XPM */
static char *result[] = {
/* columns rows colors chars-per-pixel */
"90 90 76 1 ",
"  c #EC1A23",
". c #EE1A22",
"X c #EF1B23",
"o c #EC1D22",
"O c #EC1C23",
"+ c #ED1D23",
"@ c #EE1C23",
"# c #EE1F23",
"$ c #EF1F23",
"% c #EB1B25",
"& c #EF1924",
"* c #EE1825",
"= c #ED1B24",
"- c #ED1A25",
"; c #EE1A24",
": c #EF1A24",
"> c #EE1B24",
", c #EE1A27",
"< c #EC1C24",
"1 c #ED1C24",
"2 c #ED1C25",
"3 c #EC1D25",
"4 c #EE1C25",
"5 c #EF1E24",
"6 c #EF1828",
"7 c #EC1B2D",
"8 c #EC1B2E",
"9 c #EC1B2F",
"0 c #F01722",
"q c #FB1723",
"w c #FA1524",
"e c #F11922",
"r c #F01A23",
"t c #F31A22",
"y c #F41823",
"u c #F41923",
"i c #F71A23",
"p c #F61B23",
"a c #F71B23",
"s c #F11D21",
"d c #F01E22",
"f c #F11824",
"g c #F01924",
"h c #F11A25",
"j c #F31A25",
"k c #F11927",
"l c #F31926",
"z c #F31A27",
"x c #F51C26",
"c c #F91921",
"v c #FA1821",
"b c #F81A21",
"n c #F81923",
"m c #F91923",
"M c #FA1822",
"N c #F81A22",
"B c #F81B22",
"V c #FB1729",
"C c #FB172F",
"Z c #F21B29",
"A c #F11D2B",
"S c #F71B2F",
"D c #F9192F",
"F c #FA182F",
"G c #F81A2F",
"H c #EB2023",
"J c #EC2023",
"K c #EB2525",
"L c #ED2525",
"P c #F02021",
"I c #F02023",
"U c #F02028",
"Y c #F7272B",
"T c #F7262F",
"R c #FA252B",
"E c None",
/* pixels */
"EEEEEEEEEEEEEEEEEEEEEEEEEEEEEEEEEEEEEEEEEEEEEEEEEEEEEEEEEEEEEEEEEEEEEEEEEEEEEEEEEEEEEEEEEE",
"EEEEEEEEEEEEEEEEEEEEEEEEEEEEEEEEEEEEEEEEEEEEEEEEEEEEEEEEEEEEEEEEEEEEEEEEEEEEEEEEEEEEEEEEEE",
"EEEEEEEEEEEEEEEEEEEEEEEEEEEEEEEEEEEEEEEEEEEEEEEEEEEEEEEEEEEEEEEEEEEEEEEEEEEEEEEEEEEEEEEEEE",
"EEEEEEEEEEEEEEEEEEEEEEEEEEEEEEEEEEEEEEEEEEEEEEEEEEEEEEEEEEEEEEEEEEEEEEEEEEEEEEEEEEEEEEEEEE",
"EEEEEEEEEEEEEEEEEEEEEEEEEEEEEEEEEEEEEEEEEEEEEEEEEEEEEEEEEEEEEEEEEEEEEEEEEEEEEEEEEEEEEEEEEE",
"EEEEEEEEEEEEEEEEEEEEEEEEEEEEEEEEEEEEEEEEEEEEEEEEEEEEEEEEEEEEEEEEEEEEEEEEEEEEEEEEEEEEEEEEEE",
"EEEEEEEEEEEEEEEEEEEEEEEEEEEEEEEEEEEEEEEEEEEEEEEEEEEEEEEEEEEEEEEEEEEEEEEEEEEEEEEEEEEEEEEEEE",
"EEEEEEEEEEEEEEEEEEEEEEEEEEEEEEEEEEEEEEEEEEEEEEEEEEEEEEEEEEEEEEEEEEEEEEEEEEEEEEEEEEEEEEEEEE",
"EEEEEEEEEEEEEEEEEEEEEEEEEEEEEEEEEEEEEEEEEEEEEEEEEEEEEEEEEEEEEEEEEEEEEEEEEEEEEEEEEEEEEEEEEE",
"EEEEEEEEEEEEEEEEEEEEEwEUyEEEEEEEEEEEEEEEEEEEEEEEEEEEEEEEEEEEEEEEEEEEEEEEEEEEEEEEEEEEEEEEEE",
"EEEEEEEEEEEEEEEEEEEEV$GzEVLAA*****dd*kuZEEEEEEEEEEEEEEEEEEEEEEEEEEEEEEEEEEEEEEEEEEEEEEEEEE",
"EEEEEEEEEEEEEEEEEEEES=E:1<SjZUUUUUU3U2EE,%,ZxIzI*jZZEEEEEEEEEEEEEEEEEEEEEEEEEEEEEEEEEEEEEE",
"EEEEEEEEEEEEEEEEEEEDSE11111111::::::::::+Gh$3UUUUJEEAA2ZEEEEEEEEEEEEEEEEEEEEEEEEEEEEEEEEEE",
"EEEEEEEEEEEEEEEEEVSUE1111111>:11111111111111>:>:>:>:mnEZ-JEEEEEEEEEEEEEEEEEEEEEEEEEEEEEEEE",
"EEEEEEEEEEEEEEEEVDUU1::111111111111111111111111111111111**Z$EEEEEEEEEEEEEEEEEEEEEEEEEEEEEE",
"EEEEEEEEEEEEEEEESSE1:1111111111111111111111111111111111111HmjEEEEEEEEEEEEEEEEEEEEEEEEEEEEE",
"EEEEEEEEEEEEEVESSE1:1>:11111:::::::::::>::111111111111111111aa$EEEEEEEEEEEEEEEEEEEEEEEEEEE",
"EEEEEEEEEEEEEESUE1:111<611Xr@@@@@@@N@@Nb11>:>:>:>:::::1111111aa$EEEEEEEEEEEEEEEEEEEEEEEEEE",
"EEEEEEEEEEEVE;UE::11:1YHB@$EJaaaaaaaaaa<<1<NNNB@@@@b11::::11111aSEEEEEEEEEEEEEEEEEEEEEEEEE",
"EEEEEEEEEEEzDUE1:11:1EEU4E39UEEEEEEEEEEEEE5HOHOHHH<111<@1:>:1111J<EEEEEEEEEEEEEEEEEEEEEEEE",
"EEEEEEEEEEzDE111:::1EEUUEEEEEEEEEEEEEEEEEEEEEEEEEEEEE$11<<11::111S<EEEEEEEEEEEEEEEEEEEEEEE",
"EEEEEEEEEEzU:11:1:<6EUUEEEEEEEEEEEEEEEEEEEEEEEEEEEEEEEE$G<<11::1119aEEEEEEEEEEEEEEEEEEEEEE",
"EEEEEEEEEEC1:11:1nEEUSUEEEEEEEEEEEEEEEEEEEEEEEEEEEEEEEEEES;va11::11SaEEEEEEEEEEEEEEEEEEEEE",
"EEEEEEEEE$01:11:;EEUUEEEEEEEEEEEEEEEEEEEEEEEEEEEEEEEEEEEEEEDD<<11:11aUEEEEEEEEEEEEEEEEEEEE",
"EEEEEEEEEDq1:11:*EUUEEEEEEU3EEEEEEEEEEEEEEEEEEEEEEEEEEEEEEEEU$Z111:11HEEEEEEEEEEEEEEEEEEEE",
"EEEEEEEEEDf1:11mEUUEEEEEU3EEEEEEEEEEEEEEEEEEEEEEEEEEEEE3UEEEEUJZ@11:1aEEEEEEEEEEEEEEEEEEEE",
"EEEEEEEEEmf1:11;DUEEEEEU3E11U3EEEEEEEEEEEEEEEEEEEEEEE3UEEEEEEUU2:@11:aaEEEEEEEEEEEEEEEEEEE",
"EEEEEEEEUZf1:11;$EEEEEEEE1111U3EEEEEEEEEEEEEEEEEEEEE3UE113UEEE3JSr@111OUEEEEEEEEEEEEEEEEEE",
"EEEEEEEEUZf1:11;$EEEEEEE1111113EEEEEEEEEEEEEEEEEEEEEEE11113UEEUE-+r1111pEEEEEEEEEEEEEEEEEE",
"EEEEEEEEUZf1:11;EEEEEEEEE1111EEEEEEEEEEEEEEEEEE1EEEEE111111UEEEUUJX1111aUEEEEEEEEEEEEEEEEE",
"EEEEEEEEUZf11:1;EEEEEEU3EE11EEEEE1EEEEEEEEEEEEE1EEEEEE1111EEEEEEU2:@11:1pEEEEEEEEEEEEEEEEE",
"EEEEEEEEUZ::1>1;EEEEEEEEU8K@EEEEE1EEEEEEEEEEEEE1EEE3UEE11EEEEEEE3EJ:@111SUEEEEEEEEEEEEEEEE",
"EEEEEEEEUJ:g1:1<EEEEEEEEEEEEU83EE1EEEEEEEEEEEEE1EEEEE37ojEEEEEEEUU51r11119EEEEEEEEEEEEEEEE",
"EEEEEEEEUJ>g1:1<EEEEEEEEEEEEEEEEE11EEEEEEEEEEE11EEEEEEEEE37UEEEEE3JaX@111SEEEEEEEEEEEEEEEE",
"EEEEEEEEUE:f1:1<EEEEEEEEEEEEEEEEEE1EEEEEEEEEEE1EEEEEEEEEEEEEEEEEEUU5:r111S-EEEEEEEEEEEEEEE",
"EEEEEEEEUE:f11:p$EEEEEEEEEEEEEEEEE1EEEEEEEEE11EEEEEEEEEEEEEEEEEEEE3J<X@111HEEEEEEEEEEEEEEE",
"EEEEEEEEUED::1:1+EEEEEEEEEEEEEEEEEE1EEEEEEE11EEEEEEEEEEEEEEEEEEEEEUET:r111aEEEEEEEEEEEEEEE",
"EEEEEEEEUEa:f11:+EEEEEEEEEEEEEEEEEE11EEEEE1EEEEEEEEEEEEEEEEEEEEEEEE5<1X111SEEEEEEEEEEEEEEE",
"EEEEEEEEEUa::::1SVEEEEEEEEEEEEEEEEEEE11111EEEEEEEEEEEEEEEEEEEEEEEEEaR1:@11aEEEEEEEEEEEEEEE",
"EEEEEEEEE3E1:f::<EVEEEEEEEEEEEEEEEEEEEEEEEEEEEEEEEEEEEEEEEEEEEEEEEEY$11X11aEEEEEEEEEEEEEEE",
"EEEEEEEEEUE111::;DEEEEEEEEEEEEEEEEEEEEEEEEEEEEEEEEEEEEEEEEEEEEEEEVE<:11r11aEEEEEEEEEEEEEEE",
"EEEEEEEEEUEU111:f&GjkEEEEEEEEEEEEEEEEEEEEEEEEEEEEEEEEEEEEEEEEEEEVESa:11r1aUEEEEEEEEEEEEEEE",
"EEEEEEEEEUE$111111 FE,4hEEEEEEEEEEEEEEEEEEEEEEEEEEEEEEEEEEEEEEVVE<S2111r:aUEEEEEEEEEEEEEEE",
"EEEEEEEEEEU$U11111111 xE.4EEEEEEEEEEEEEEEEEEEEEEEEEEEEEEEEEEEVEU<E3:111r4UUEEEEEEEEEEEEEEE",
"EEEEEEEEEEUE$Z111111111:yhZ.EEEEEEEEEEEEEEEEEEEEEEEEEEEEEEEEEE<SE11111r$JSUEEEEEEEEEEEEEEE",
"EEEEEEEEEEEUSU61111111111:zy#jhEEEEEEEEEEEEEEEEEEEEEEEEEEzz$a<EE111111cE33EEEEEEEEEEEEEEEE",
"EEEEEEEEEEEEESanv>1111111111itEeyhzx.deedezxsls0s00dd0kaa2JaUE1111111bEEUUEEEEEEEEEEEEEEEE",
"EEEEEEEEEEEEEEUaHb>:>11111111119H-5U33U3U3U3UUUUUUUU3USUU11111:11111jEEUUEEEEEEEEEEEEEEEEE",
"EEEEEEEEEEEEEEEEUa<<o>:11111111111111111111111111111111111111111111PEEUUEEEEEEEEEEEEEEEEEE",
"EEEEEEEEEEEEEEEEEEE-<11z>1111111111111111111111111111111111:11111pPEEUUEEEEEEEEEEEEEEEEEEE",
"EEEEEEEEEEEEEEEEEEEEEEHa<M:>11111111111111111111111111::::111111PEEUSUEEEEEEEEEEEEEEEEEEEE",
"EEEEEEEEEEEEEEEEEEEEEEEEaaaN>:>:>>:>>:>:>:>::::::::>:111111111aPEEUUEEEEEEEEEEEEEEEEEEEEEE",
"EEEEEEEEEEEEEEEEEEEEEEEEEEJa<1a11111111111111111111111111<<<pjEEUSUEEEEEEEEEEEEEEEEEEEEEEE",
"EEEEEEEEEEEEEEEEEEEEEEEEEEEEE-a11apaapa1aaaaaa<<<<<<aaapjEE$DDSSUEEEEEEEEEEEEEEEEEEEEEEEEE",
"EEEEEEEEEEEEEEEEEEEEEEEEEEEEEEEEE5+  +41+4+ + +++DDDDDGD+9SUEEEEEEEEEEEEEEEEEEEEEEEEEEEEEE",
"EEEEEEEEEEEEEEEEEEEEEEEEEEEEEEEEEEEEEE1EEEEEEEEEEEEEEEEEEEEEEEEEEEEEEEEEEEEEEEEEEEEEEEEEEE",
"EEEEEEEEEEEEEEEEEEEEEEEEEEEEEEEEEEEEEE1EEEEEEEEEEEEEEEEEEEEEEEEEEEEEEEEEEEEEEEE11EEEEEEEEE",
"EEEEEEEEEEEEEEEEEEEEEEEEEEEEEEEEEEEEEE1EEEEEEEEEEEEEEEEEEEEEEEEEEEEEEEEEEEE1111EEEEEEEEEEE",
"1EEEEEEEEEEEEEEEEEEEEEEEEEEEEEEEEEEEEEE1EEEEEEEEEEEEEEEEEEEEEEEEEEEE11111111EEEEEEEEEEEEEE",
"E111111EEEEEEEEEEEEEEEEEEEEEEEEEEEEEEEE1EEEEEEEEEEEEEEEEEEE111111111EEEEEEEEEEEEEEEEEEEEEE",
"EEEEEEE11111111EEEEEEEEEEEEEEEEEEEEEEEE1EEEEEEEEEE111111111EEEEEEEEEEEEEEEEEEEEEEEEEEEEEEE",
"EEEEEEEEEEEEEEE111111EEEEEEEEEEEEEEEEE1EEEE1111111EEEEEEEEEEEEEEEEEEEEEEEEEEEEEEEEEEEEEEEE",
"EEEEEEEEEEEEEEEEEEEEE1111111111111111111111EEEEEEEEEEEEEEEEEEEEEEEEEEEEEEEEEEEEEEEEEEEEEEE",
"EEEEEEEEEEEEEEEEEEEEEEEEEEEEEEEEEEEEEE1EEEEEEEEEEEEEEEEEEEEEEEEEEEEEEEEEEEEEEEEEEEEEEEEEEE",
"EEEEEEEEEEEEEEEEEEEEEEEEEEEEEEEEEEEEEE1EEEEEEEEEEEEEEEEEEEEEEEEEEEEEEEEEEEEEEEEEEEEEEEEEEE",
"EEEEEEEEEEEEEEEEEEEEEEEEEEEEEEEEEEEEEEE1EEEEEEEEEEEEEEEEEEEEEEEEEEEEEEEEEEEEEEEEEEEEEEEEEE",
"EEEEEEEEEEEEEEEEEEEEEEEEEEEEEEEEEEEEEEE1EEEEEEEEEEEEEEEEEEEEEEEEEEEEEEEEEEEEEEEEEEEEEEEEEE",
"EEEEEEEEEEEEEEEEEEEEEEEEEEEEEEEEEEEEEEE1EEEEEEEEEEEEEEEEEEEEEEEEEEEEEEEEEEEEEEEEEEEEEEEEEE",
"EEEEEEEEEEEEEEEEEEEEEEEEEEEEEEEEEEEEEEE1EEEEEEEEEEEEEEEEEEEEEEEEEEEEEEEEEEEEEEEEEEEEEEEEEE",
"EEEEEEEEEEEEEEEEEEEEEEEEEEEEEEEEEEEEEE1EEEEEEEEEEEEEEEEEEEEEEEEEEEEEEEEEEEEEEEEEEEEEEEEEEE",
"EEEEEEEEEEEEEEEEEEEEEEEEEEEEEEEEEEEEEE1EEEEEEEEEEEEEEEEEEEEEEEEEEEEEEEEEEEEEEEEEEEEEEEEEEE",
"EEEEEEEEEEEEEEEEEEEEEEEEEEEEEEEEEEEEEE1EEEEEEEEEEEEEEEEEEEEEEEEEEEEEEEEEEEEEEEEEEEEEEEEEEE",
"EEEEEEEEEEEEEEEEEEEEEEEEEEEEEEEEEEEEEE1EEEEEEEEEEEEEEEEEEEEEEEEEEEEEEEEEEEEEEEEEEEEEEEEEEE",
"EEEEEEEEEEEEEEEEEEEEEEEEEEEEEEEEEEEEEE1EEEEEEEEEEEEEEEEEEEEEEEEEEEEEEEEEEEEEEEEEEEEEEEEEEE",
"EEEEEEEEEEEEEEEEEEEEEEEEEEEEEEEEEEEEEE1EEEEEEEEEEEEEEEEEEEEEEEEEEEEEEEEEEEEEEEEEEEEEEEEEEE",
"EEEEEEEEEEEEEEEEEEEEEEEEEEEEEEEEEEEEEE1EEEEEEEEEEEEEEEEEEEEEEEEEEEEEEEEEEEEEEEEEEEEEEEEEEE",
"EEEEEEEEEEEEEEEEEEEEEEEEEEEEEEEEEEEEEE1EEEEEEEEEEEEEEEEEEEEEEEEEEEEEEEEEEEEEEEEEEEEEEEEEEE",
"EEEEEEEEEEEEEEEEEEEEEEEEEEEEEEEEEEEEEE1EEEEEEEEEEEEEEEEEEEEEEEEEEEEEEEEEEEEEEEEEEEEEEEEEEE",
"EEEEEEEEEEEEEEEEEEEEEEEEEEEEEEEEEEEEEE1EEEEEEEEEEEEEEEEEEEEEEEEEEEEEEEEEEEEEEEEEEEEEEEEEEE",
"EEEEEEEEEEEEEEEEEEEEEEEEEEEEEEEEEEEEEE1EEEEEEEEEEEEEEEEEEEEEEEEEEEEEEEEEEEEEEEEEEEEEEEEEEE",
"EEEEEEEEEEEEEEEEEEEEEEEEEEEEEEEEEEEE11E1EEEEEEEEEEEEEEEEEEEEEEEEEEEEEEEEEEEEEEEEEEEEEEEEEE",
"EEEEEEEEEEEEEEEEEEEEEEEEEEEEEEEEE111EEEE11EEEEEEEEEEEEEEEEEEEEEEEEEEEEEEEEEEEEEEEEEEEEEEEE",
"EEEEEEEEEEEEEEEEEEEEEEEEEEEEEEE11EEEEEEEEE111EEEEEEEEEEEEEEEEEEEEEEEEEEEEEEEEEEEEEEEEEEEEE",
"EEEEEEEEEEEEEEEEEEEEEEEEEEEEE11EEEEEEEEEEEEEE1EEEEEEEEEEEEEEEEEEEEEEEEEEEEEEEEEEEEEEEEEEEE",
"EEEEEEEEEEEEEEEEEEEEEEEEEEE111EEEEEEEEEEEEEEEE1EEEEEEEEEEEEEEEEEEEEEEEEEEEEEEEEEEEEEEEEEEE",
"EEEEEEEEEEEEEEEEEEEEEEEEE111EEEEEEEEEEEEEEEEEEE1EEEEEEEEEEEEEEEEEEEEEEEEEEEEEEEEEEEEEEEEEE",
"EEEEEEEEEEEEEEEEEEEEEEEEE1EEEEEEEEEEEEEEEEEEEEEE11EEEEEEEEEEEEEEEEEEEEEEEEEEEEEEEEEEEEEEEE",
"EEEEEEEEEEEEEEEEEEEEEEEEE1EEEEEEEEEEEEEEEEEEEEEEEE1EEEEEEEEEEEEEEEEEEEEEEEEEEEEEEEEEEEEEEE",
"EEEEEEEEEEEEEEEEEEEEEEEEEEEEEEEEEEEEEEEEEEEEEEEEEEE1EEEEEEEEEEEEEEEEEEEEEEEEEEEEEEEEEEEEEE",
"EEEEEEEEEEEEEEEEEEEEEEEEEEEEEEEEEEEEEEEEEEEEEEEEEEE1EEEEEEEEEEEEEEEEEEEEEEEEEEEEEEEEEEEEEE"
};
